<?xml version="1.0" encoding="utf-8"?>
<!-- Generator: Adobe Illustrator 17.0.0, SVG Export Plug-In . SVG Version: 6.00 Build 0)  -->
<!DOCTYPE svg PUBLIC "-//W3C//DTD SVG 1.1//EN" "http://www.w3.org/Graphics/SVG/1.1/DTD/svg11.dtd">
<svg version="1.1" xmlns="http://www.w3.org/2000/svg" xmlns:xlink="http://www.w3.org/1999/xlink" x="0px" y="0px" width="2500px"
	 height="1562px" viewBox="0 0 2500 1562" enable-background="new 0 0 2500 1562" xml:space="preserve">
<g id="Layer_2">
	<path fill="none" stroke="#EF4748" stroke-width="12" stroke-miterlimit="10" d="M1566.2,654.7c0-177-143.5-320.5-320.5-320.5
		c-177,0-320.5,143.5-320.5,320.5c0,0.6,0,1.1,0,1.7h252.2c5.6-32.6,34-57.4,68.2-57.4c34.2,0,62.6,24.8,68.2,57.4h252.2
		C1566.2,655.8,1566.2,655.2,1566.2,654.7z"/>
	<path fill="none" stroke="#EF4748" stroke-width="12" stroke-miterlimit="10" d="M1314,685.2c-5.6,32.6-34,57.4-68.2,57.4
		c-34.2,0-62.6-24.8-68.2-57.4H926.4c13,165.1,150.9,295,319.4,295c168.4,0,306.4-129.9,319.4-295H1314z"/>
	<line fill="none" stroke="#EF4748" stroke-width="12" stroke-miterlimit="10" x1="1577.3" y1="460.6" x2="1784.6" y2="265.4"/>
	<line fill="none" stroke="#EF4748" stroke-width="12" stroke-miterlimit="10" x1="1449.3" y1="364.8" x2="1632.9" y2="208.1"/>
	<line fill="none" stroke="#EF4748" stroke-width="12" stroke-miterlimit="10" x1="887.3" y1="844.2" x2="715.4" y2="980.2"/>
	<line fill="none" stroke="#EF4748" stroke-width="12" stroke-miterlimit="10" x1="801.4" y1="1074.2" x2="990.9" y2="912.2"/>
	<circle fill="none" stroke="#EF4748" stroke-width="12" stroke-miterlimit="10" cx="887.3" cy="382.3" r="22.7"/>
	<circle fill="none" stroke="#EF4748" stroke-width="12" stroke-miterlimit="10" cx="821.6" cy="578.8" r="22.7"/>
	<circle fill="none" stroke="#EF4748" stroke-width="12" stroke-miterlimit="10" cx="1679.7" cy="707.9" r="22.7"/>
	<circle fill="none" stroke="#EF4748" stroke-width="12" stroke-miterlimit="10" cx="1619.6" cy="886.2" r="22.7"/>
	<circle fill="none" stroke="#EF4748" stroke-width="12" stroke-miterlimit="10" cx="1458.7" cy="1028.3" r="22.7"/>
	<circle fill="none" stroke="#EF4748" stroke-width="12" stroke-miterlimit="10" cx="1253.1" cy="1052.8" r="22.7"/>
	<rect y="1213.5" fill="none" width="2500" height="146.1"/>
	<text transform="matrix(1 0 0 1 787.5195 1349.568)"><tspan x="0" y="0" fill="#EF4748" font-family="'BambinoNew-Regular'" font-size="189" letter-spacing="18">Po</tspan><tspan x="275.2" y="0" fill="#EF4748" font-family="'BambinoNew-Regular'" font-size="189" letter-spacing="13">k</tspan><tspan x="394.4" y="0" fill="#EF4748" font-family="'BambinoNew-Regular'" font-size="189" letter-spacing="18">éd</tspan><tspan x="678.5" y="0" fill="#EF4748" font-family="'BambinoNew-Regular'" font-size="189" letter-spacing="13">e</tspan><tspan x="814.4" y="0" fill="#EF4748" font-family="'BambinoNew-Regular'" font-size="189" letter-spacing="18">x</tspan></text>
	<circle fill="none" stroke="#EF4748" stroke-width="12" stroke-miterlimit="10" cx="1267.1" cy="263.7" r="22.7"/>
	<circle fill="none" stroke="#EF4748" stroke-width="12" stroke-miterlimit="10" cx="1061.5" cy="288.2" r="22.7"/>
</g>
<g id="Layer_3">
</g>
</svg>
